<?xml version="1.0" encoding="UTF-8" standalone="no"?>
<svg xmlns="http://www.w3.org/2000/svg" xmlns:xlink="http://www.w3.org/1999/xlink" width="732" height="758" viewBox="0 92 732 758">
  <defs>
    <linearGradient id="e">
      <stop offset="0" stop-color="#2e3436"/>
      <stop offset="1" stop-color="#2e3436" stop-opacity="0"/>
    </linearGradient>
    <linearGradient id="d">
      <stop offset="0" stop-color="#2e3436"/>
      <stop offset="1" stop-color="#2e3436" stop-opacity="0"/>
    </linearGradient>
    <linearGradient id="c">
      <stop offset="0" stop-color="#fff" stop-opacity="0"/>
      <stop offset=".3339161" stop-color="#fff" stop-opacity=".74901961"/>
      <stop offset=".52797198" stop-color="#fff" stop-opacity=".92156863"/>
      <stop offset="1" stop-color="#fff" stop-opacity="0"/>
    </linearGradient>
    <linearGradient id="b">
      <stop offset="0" stop-color="#fff"/>
      <stop offset=".30665722" stop-color="#fff" stop-opacity=".74901961"/>
      <stop offset=".68130308" stop-color="#fff" stop-opacity=".60434783"/>
      <stop offset="1" stop-color="#fff"/>
    </linearGradient>
    <linearGradient id="a">
      <stop offset="0" stop-color="#555753"/>
      <stop offset="1" stop-color="#555753" stop-opacity="0"/>
    </linearGradient>
    <linearGradient xlink:href="#a" id="g" x1="121.87132" x2="113.28503" y1="159.4608" y2="-.14329973" gradientTransform="matrix(1.49502 0 0 1 389.60528 0)" gradientUnits="userSpaceOnUse"/>
    <linearGradient xlink:href="#b" id="h" x1="58.214286" x2="184.28572" y1="45.667577" y2="45.667577" gradientTransform="matrix(1.49502 0 0 .99724 389.60528 -.22315204)" gradientUnits="userSpaceOnUse"/>
    <linearGradient xlink:href="#c" id="i" x1="48.487322" x2="192.93914" y1="491.47534" y2="491.47534" gradientTransform="matrix(1.49502 0 0 1 389.60528 0)" gradientUnits="userSpaceOnUse"/>
    <linearGradient xlink:href="#d" id="j" x1="157.0838" x2="190.40868" y1="345.2554" y2="345.2554" gradientUnits="userSpaceOnUse"/>
    <linearGradient xlink:href="#e" id="k" x1="498.51538" x2="394.4595" y1="352.32648" y2="346.26553" gradientUnits="userSpaceOnUse"/>
    <linearGradient xlink:href="#a" id="l" x1="121.87132" x2="113.28503" y1="159.4608" y2="-.14329973" gradientUnits="userSpaceOnUse"/>
    <linearGradient xlink:href="#b" id="m" x1="58.214286" x2="184.28572" y1="45.667577" y2="45.667577" gradientTransform="matrix(1 0 0 .99724 0 -.22315204)" gradientUnits="userSpaceOnUse"/>
    <linearGradient xlink:href="#c" id="n" x1="48.487322" x2="192.93914" y1="491.47534" y2="491.47534" gradientUnits="userSpaceOnUse"/>
    <linearGradient xlink:href="#a" id="o" x1="121.87132" x2="113.28503" y1="159.4608" y2="-.14329973" gradientTransform="matrix(1.49502 0 0 1 -142.39472 0)" gradientUnits="userSpaceOnUse"/>
    <linearGradient xlink:href="#c" id="p" x1="48.487322" x2="192.93914" y1="491.47534" y2="491.47534" gradientTransform="matrix(1.49502 0 0 1 -142.39472 0)" gradientUnits="userSpaceOnUse"/>
    <linearGradient xlink:href="#b" id="q" x1="58.214286" x2="184.28572" y1="45.667577" y2="45.667577" gradientTransform="matrix(1.49502 0 0 .99724 -142.39472 -.22315204)" gradientUnits="userSpaceOnUse"/>
    <filter id="f" width="1.1481739" height="1.6311111" x="-.07408696" y="-.31555555">
      <feGaussianBlur stdDeviation="28.688332"/>
    </filter>
  </defs>
  <path fill="none" d="M15.232208 142.16582H705.62496v690.39275H15.232208z" opacity=".53484659"/>
  <g transform="translate(148.75376 216.29657) scale(.68488)">
    <path d="m36.365497 422.02699 634.375793 12.12183c44.76179.85532 109.09647 246.15398 109.09647 290.92394v56.56854c0 44.76996-36.04224 80.8122-80.8122 80.8122H-68.690368c-44.769962 0-80.812202-36.04224-80.812202-80.8122v-56.56854c0-44.76996 141.1062757-303.90109 185.868067-303.04577z" filter="url(#f)" opacity=".65644172" transform="matrix(.90912 0 0 .86022 20.5617 93.813723)"/>
    <path fill="#4e9a06" stroke="#4e9a06" d="m189.90868-89.110193-2.02031 555.583903L163.64471 779.621l-6.06091-622.25397z"/>
    <path fill="none" d="M11.428572 138.07646h697.14288v697.14288H11.428572z" opacity=".82822086"/>
    <path fill="#d3d7cf" stroke="#a40000" stroke-linejoin="round" stroke-width="20.78603935" d="m453.67736 170.93361-31.719-256.132706c52.67566 18.354781 108.96372 23.419943 172.99463 0l93.65535 253.275566-2.13573 608.57143-230.65951-2.85715z"/>
    <path fill="#ef2929" stroke="#a40000" stroke-linejoin="round" stroke-width="14.67249775" d="M453.67736 169.50504v605.71429c78.31033 43.80952 156.62066 43.80952 234.93098 0V168.07647c-81.33299 51.00958-159.28868 45.58082-234.93098 1.42857z"/>
    <path fill="#eeeeec" stroke="#888a85" stroke-linejoin="round" stroke-width="19.47200203" d="m442.56391-86.869148 32.52177 252.528388c62.02233 25.89482 124.04466 24.0529 186.067 0L574.61147-86.869147c-47.24849 14.448255-95.44306 14.030368-132.04756-.000001z"/>
    <path fill="none" stroke="#555753" stroke-linecap="round" stroke-width="8.5589571" d="M489.98488 160.93361 464.99066-66.699455"/>
    <path fill="#555753" stroke="#555753" stroke-linecap="round" stroke-width="8.5589571" d="M513.47798 169.50504 482.30741-63.005474"/>
    <path fill="none" stroke="#555753" stroke-linecap="round" stroke-width="8.5589571" d="M545.51401 175.21933 500.40345-59.138179m68.60367 232.928929L519.50965-57.709607m75.1263 230.071787L536.59553-57.536293"/>
    <path fill="#555753" stroke="#555753" stroke-linecap="round" stroke-width="8.5589571" d="M620.26478 168.07647 549.64081-59.556598"/>
    <path fill="none" stroke="#555753" stroke-linecap="round" stroke-width="8.5589571" d="M647.4038 166.15769 562.68608-63.005474"/>
    <path fill="#fce94f" d="M476.25819 167.4662c60.30217 25.77176 124.85157 23.00034 189.17858 1.15558-.50744-.2396-.37571-5.52044-4.46259-5.73754-29.56483-1.57053-129.56592 8.47248-169.03514-.3193-13.5835-3.02573-15.09666.16556-15.68085 4.90126z"/>
    <path fill="url(#g)" d="M478.17276 160.5708c60.30218 24.77066 122.937 22.00636 187.26401 1.01016-2.90226-.52274-56.99155-173.249342-59.82407-173.718757-74.14048-12.286881-73.52686 165.590817-119.61028 171.669507-2.62338.34604-5.2321.69348-7.82966 1.03909z"/>
    <path fill="#a40000" stroke="#a40000" d="M416.18285-87.089888V54.331468l10.10152 682.863122 24.24366 38.3858 2.02031-604.07123z"/>
    <path fill="url(#h)" d="M477.39162 159.29504c65.05317 28.03063 132.66277 17.97046 187.1897 2.02822L570.2766-73.75868c-69.29336 13.91828-83.4711 8.006601-120.98187-1.093785z" opacity=".74846628"/>
    <path fill="url(#i)" stroke="#eeeeec" stroke-width="7.33624887" d="M467.96784 188.69227v582.36781c71.9859 36.14004 134.36097 38.28607 206.34687.35714l1.06786-584.09224c-69.88555 33.56542-130.71045 34.83833-207.41473 1.36729z" opacity=".67484663"/>
    <path fill="url(#j)" stroke="#2e3436" d="m189.90868-89.110193-2.02031 555.583903L163.64471 779.621l-6.06091-622.25397z"/>
    <path fill="url(#k)" d="M416.18285-87.089888V54.331468l10.10152 682.863122 24.24366 38.3858 2.02031-604.07123z"/>
    <g transform="matrix(1.49502 0 0 1 123.60528 0)">
      <path fill="#d3d7cf" stroke="#204a87" stroke-linejoin="round" stroke-width="17" d="m42.857143 170.93361 20-257.142859c35.234196 18.354781 72.884687 23.419943 115.714287 0L200 168.07647l-1.42857 608.57143-154.285716-2.85715z"/>
      <path fill="#3465a4" stroke="#204a87" stroke-linejoin="round" stroke-width="12" d="M42.857143 169.50504v605.71429c52.380952 43.80952 104.761907 43.80952 157.142857 0V168.07647c-54.40278 51.00958-106.546519 45.58082-157.142857 1.42857z"/>
      <path fill="#eeeeec" stroke="#888a85" stroke-linejoin="round" stroke-width="15.92530537" d="M75.288616-88.889453 57.176938 165.65924c41.486087 25.89482 82.972172 24.0529 124.458262 0L163.61384-88.889452c-31.60402 14.448255-63.840859 14.030368-88.325224-.000001z"/>
      <path fill="none" stroke="#555753" stroke-linecap="round" stroke-width="7" d="M67.142857 160.93361 82.857143-74.780675"/>
      <path fill="#555753" stroke="#555753" stroke-linecap="round" stroke-width="7" d="M82.857143 169.50504 97.142857-69.066389"/>
      <path fill="none" stroke="#555753" stroke-linecap="round" stroke-width="7" d="m104.28571 175.21933 4.28572-241.428577M120 173.79075V-64.780675m17.14286 237.142855-5.71429-239.999998"/>
      <path fill="#555753" stroke="#555753" stroke-linecap="round" stroke-width="7" d="M154.28571 168.07647 142.85714-67.637818"/>
      <path fill="none" stroke="#555753" stroke-linecap="round" stroke-width="7" d="M172.43872 166.15769 154.28571-69.066389"/>
      <path fill="#fce94f" d="M57.961219 167.4662c40.335489 25.77176 83.511901 23.00034 126.539561 1.15558-.33942-.2396-.25131-5.52044-2.98498-5.73754-19.7756-1.57053-86.66528 8.47248-113.065825-.3193-9.085857-3.02573-10.097995.16556-10.488756 4.90126z"/>
      <path fill="url(#l)" d="M59.241857 160.5708c40.335489 24.77066 82.231263 22.00636 125.258923 1.01016-1.94129-.52274-12.44519-168.1985792-14.33983-168.6679942C120.56916-19.373915 95.30375 153.45302 64.479031 159.53171c-1.754753.34604-3.499695.69348-5.237174 1.03909z"/>
      <path fill="url(#m)" d="M58.719362 159.29504c43.513378 28.03063 88.736728 17.97046 125.209218 2.02822L160.71429-79.819595c-46.3496 13.91828-55.83294 8.006601-80.9235-1.093785z" opacity=".74846628"/>
      <path fill="url(#n)" stroke="#729fcf" stroke-width="6" d="M52.415893 188.69227v582.36781c48.150607 36.14004 89.872637 38.28607 138.023247.35714l.71428-584.09224c-46.74571 33.56542-87.43084 34.83833-138.737527 1.36729z" opacity=".67484663"/>
    </g>
    <path fill="#d3d7cf" stroke="#4e9a06" stroke-linejoin="round" stroke-width="20.78603935" d="M-78.322636 170.93361 10.149099-83.352106c52.675662 18.354781 108.963721 23.419943 172.994631 0L156.60834 168.07647l-2.13573 608.57143-230.65951-2.85715z"/>
    <path fill="#73d216" stroke="#4e9a06" stroke-linejoin="round" stroke-width="14.67249775" d="M-78.322636 169.50504v605.71429c78.31032517 43.80952 156.620654 43.80952 234.930976 0V168.07647c-81.332988 51.00958-159.2886761 45.58082-234.930976 1.42857z"/>
    <path fill="#eeeeec" stroke="#888a85" stroke-linejoin="round" stroke-width="19.47200203" d="M31.591484-83.175167-56.914323 165.65924c62.0223349 25.89482 124.044667 24.0529 186.067003 0l34.48636-248.834406c-47.24849 14.448255-95.443055 14.030368-132.047556-.000001z"/>
    <path fill="none" stroke="#555753" stroke-linecap="round" stroke-width="8.5589571" d="M-42.015121 160.93361 42.906547-61.923532"/>
    <path fill="#555753" stroke="#555753" stroke-linecap="round" stroke-width="8.5589571" d="m-18.522024 169.50504 75.643076-230"/>
    <path fill="none" stroke="#555753" stroke-linecap="round" stroke-width="8.5589571" d="M13.514012 175.21933 68.492658-57.637818M37.007116 173.79075l50-232.857139M62.635954 172.36218 108.37872-59.066389"/>
    <path fill="#555753" stroke="#555753" stroke-linecap="round" stroke-width="8.5589571" d="M88.264777 168.07647 128.32175-63.352104"/>
    <path fill="none" stroke="#555753" stroke-linecap="round" stroke-width="8.5589571" d="m115.4038 166.15769 30.00383-232.366936"/>
    <path fill="#fce94f" d="M-55.741811 167.4662c60.3021734 25.77176 124.85157 23.00034 189.178581 1.15558-.50744-.2396-.37571-5.52044-4.46259-5.73754-29.564826-1.57053-129.56592139 8.47248-169.03514-.3193-13.583495-3.02573-15.096657.16556-15.680851 4.90126z"/>
    <path fill="url(#o)" d="M-53.827237 160.5708c60.3021728 24.77066 122.936996 22.00636 187.264007 1.01016-2.90226-.52274 17.10854-172.484293 14.27602-172.953708C73.572305-23.659629.0858444 153.45302-45.997582 159.53171c-2.623383.34604-5.232098.69348-7.829655 1.03909z"/>
    <path fill="url(#p)" stroke="#eeeeec" stroke-width="7.33624887" d="M-64.032158 188.69227v582.36781c71.9858942 36.14004 134.360967 38.28607 206.346868.35714l1.06786-584.09224c-69.885554 33.56542-130.710446 34.83833-207.414728 1.36729z" opacity=".67484663"/>
    <path fill="url(#q)" d="M-54.608375 159.29504c65.053165 28.03063 132.662766 17.97046 187.189695 2.02822l23.86571-235.428569c-69.29336 13.91828-83.471098 8.006601-120.981869-1.093785z" opacity=".74846628"/>
  </g>
</svg>